<svg width="256" height="256" viewBox="0 0 256 256" fill="none" xmlns="http://www.w3.org/2000/svg">
<g clip-path="url(#clip0_3_32)">
<path d="M72.0123 242.501C29.408 221.813 -0.000488281 178.126 -0.000488281 127.613C-0.000488281 57.1817 57.1934 -0.012207 127.625 -0.012207C145.295 -0.012207 162.133 3.58841 177.431 10.1029C179.012 10.6024 180.448 11.2269 181.739 12.0178C225.155 32.3937 255.25 76.517 255.25 127.613C255.25 198.044 198.056 255.238 127.625 255.238C110.163 255.238 93.5123 251.721 78.3604 245.373C75.9252 244.707 73.8022 243.749 72.0123 242.501V242.501ZM177.431 10.1029C174.704 9.22872 171.54 8.79164 167.961 8.79164C157.512 8.79164 148.833 11.3309 141.923 16.4093C134.993 21.4668 129.665 28.5016 125.898 37.4928C122.13 46.484 119.55 56.8905 118.176 68.7331H99.7354L97.6541 85.5499L116.095 85.321C115.637 91.773 115.054 99.3697 114.367 108.132C113.68 116.894 112.993 126.073 112.307 135.688C111.599 145.283 110.954 154.503 110.35 163.349C109.726 172.174 109.101 179.895 108.498 186.514C108.04 190.968 107.54 195.734 106.999 200.791C106.458 205.87 105.688 210.636 104.689 215.09C103.69 219.544 102.358 223.165 100.651 225.913C98.9652 228.681 96.8218 230.075 94.1993 230.075C93.1379 230.075 92.1384 229.909 91.2019 229.617C91.8262 225.621 90.973 222.27 88.6836 219.586C86.3733 216.901 83.4388 215.464 79.9214 215.319C76.5288 215.173 73.7607 215.922 71.617 217.629C69.4732 219.315 67.9331 221.313 66.9965 223.623C66.0808 225.913 65.6231 227.994 65.6231 229.846C65.6231 234.904 67.517 238.942 71.2633 241.939C71.5131 242.126 71.7625 242.313 72.0123 242.501C74.0936 243.52 76.2166 244.478 78.3604 245.373C81.0244 246.08 84.0838 246.434 87.5179 246.434C93.8243 246.434 99.4231 245.518 104.335 243.666C109.268 241.834 113.639 239.129 117.489 235.611C121.319 232.073 124.544 227.848 127.167 222.916C129.768 218.004 131.975 212.467 133.744 206.328C135.492 200.188 136.762 193.569 137.532 186.514C138.302 180.062 139.072 172.402 139.842 163.578C140.612 154.732 141.382 145.512 142.152 135.917C142.922 126.302 143.609 117.082 144.213 108.257C144.837 99.4114 145.378 91.6898 145.836 85.0921L174.871 84.6343L176.494 68.7331H146.752C147.21 64.2791 147.71 59.513 148.251 54.4346C148.792 49.3562 149.562 44.6109 150.561 40.1361C151.56 35.6821 152.892 32.0813 154.599 29.3132C156.285 26.5451 158.428 25.1714 161.051 25.1714C161.821 25.1714 162.466 25.1924 163.007 25.2756C163.548 25.3589 163.881 25.4628 164.047 25.6293C163.423 29.6254 164.318 32.9556 166.691 35.6613C169.084 38.3461 171.957 39.7615 175.349 39.9072C178.867 39.9072 181.676 39.1162 183.757 37.4928C185.818 35.8902 187.317 33.9546 188.253 31.7276C189.169 29.5006 189.627 27.5443 189.627 25.8584C189.627 20.9258 187.754 16.8672 183.987 13.6412C183.3 13.0377 182.55 12.4965 181.739 12.0178C180.323 11.3517 178.888 10.7064 177.431 10.1029V10.1029Z" fill="url(#paint0_linear_3_32)"/>
</g>
<defs>
<linearGradient id="paint0_linear_3_32" x1="515.122" y1="-23.935" x2="23.935" y2="210.211" gradientUnits="userSpaceOnUse">
<stop stop-color="#CE640B"/>
<stop offset="1" stop-color="#E3A50C"/>
</linearGradient>
<clipPath id="clip0_3_32">
<rect width="256" height="256" fill="white"/>
</clipPath>
</defs>
</svg>
